<svg width="553" height="281" xmlns="http://www.w3.org/2000/svg" xmlns:xlink="http://www.w3.org/1999/xlink" id="svg1" xml:space="preserve" overflow="hidden"><defs id="defs1"><marker refX="4.5" markerWidth="1" markerHeight="1" markerUnits="strokeWidth" orient="auto-start-reverse" viewBox="0 0 1 1" id="RoundedArrow-2" overflow="visible"><path d="M-0.211146-4.10557 6.21115-0.894427C6.70512-0.647438 6.90535-0.0467649 6.65836 0.447214 6.5616 0.640741 6.40467 0.797664 6.21115 0.894427L-0.211146 4.10557C-0.821737 4.41087-1.56421 4.16338-1.8695 3.55279-1.95532 3.38115-2 3.19189-2 3L-2-3C-2-3.68266-1.44659-4.23607-0.763932-4.23607-0.572038-4.23607-0.38278-4.19139-0.211146-4.10557Z" id="path8-1" fill-rule="evenodd" transform="scale(0.7 0.7)"/></marker><marker refX="4.5" markerWidth="1" markerHeight="1" markerUnits="strokeWidth" orient="auto-start-reverse" viewBox="0 0 1 1" id="marker1" overflow="visible"><path d="M-0.211146-4.10557 6.21115-0.894427C6.70512-0.647438 6.90535-0.0467649 6.65836 0.447214 6.5616 0.640741 6.40467 0.797664 6.21115 0.894427L-0.211146 4.10557C-0.821737 4.41087-1.56421 4.16338-1.8695 3.55279-1.95532 3.38115-2 3.19189-2 3L-2-3C-2-3.68266-1.44659-4.23607-0.763932-4.23607-0.572038-4.23607-0.38278-4.19139-0.211146-4.10557Z" id="path1" fill-rule="evenodd" transform="scale(0.7 0.7)"/></marker><marker refX="4.5" markerWidth="1" markerHeight="1" markerUnits="strokeWidth" orient="auto-start-reverse" viewBox="0 0 1 1" id="RoundedArrow-89-91" overflow="visible"><path d="M-0.211146-4.10557 6.21115-0.894427C6.70512-0.647438 6.90535-0.0467649 6.65836 0.447214 6.5616 0.640741 6.40467 0.797664 6.21115 0.894427L-0.211146 4.10557C-0.821737 4.41087-1.56421 4.16338-1.8695 3.55279-1.95532 3.38115-2 3.19189-2 3L-2-3C-2-3.68266-1.44659-4.23607-0.763932-4.23607-0.572038-4.23607-0.38278-4.19139-0.211146-4.10557Z" id="path8-49-6" fill-rule="evenodd" transform="scale(0.7 0.7)"/></marker><marker refX="4.5" markerWidth="1" markerHeight="1" markerUnits="strokeWidth" orient="auto-start-reverse" viewBox="0 0 1 1" id="RoundedArrow-89-5-2" overflow="visible"><path d="M-0.211146-4.10557 6.21115-0.894427C6.70512-0.647438 6.90535-0.0467649 6.65836 0.447214 6.5616 0.640741 6.40467 0.797664 6.21115 0.894427L-0.211146 4.10557C-0.821737 4.41087-1.56421 4.16338-1.8695 3.55279-1.95532 3.38115-2 3.19189-2 3L-2-3C-2-3.68266-1.44659-4.23607-0.763932-4.23607-0.572038-4.23607-0.38278-4.19139-0.211146-4.10557Z" id="path8-49-3-7" fill-rule="evenodd" transform="scale(0.7 0.7)"/></marker><marker refX="4.5" markerWidth="1" markerHeight="1" markerUnits="strokeWidth" orient="auto-start-reverse" viewBox="0 0 1 1" id="RoundedArrow-89-4-3-1" overflow="visible"><path d="M-0.211146-4.10557 6.21115-0.894427C6.70512-0.647438 6.90535-0.0467649 6.65836 0.447214 6.5616 0.640741 6.40467 0.797664 6.21115 0.894427L-0.211146 4.10557C-0.821737 4.41087-1.56421 4.16338-1.8695 3.55279-1.95532 3.38115-2 3.19189-2 3L-2-3C-2-3.68266-1.44659-4.23607-0.763932-4.23607-0.572038-4.23607-0.38278-4.19139-0.211146-4.10557Z" id="path8-49-6-7-2" fill-rule="evenodd" transform="scale(0.7 0.7)"/></marker><marker refX="4.5" markerWidth="1" markerHeight="1" markerUnits="strokeWidth" orient="auto-start-reverse" viewBox="0 0 1 1" id="RoundedArrow-89-5-6-2-1-4" overflow="visible"><path d="M-0.211146-4.10557 6.21115-0.894427C6.70512-0.647438 6.90535-0.0467649 6.65836 0.447214 6.5616 0.640741 6.40467 0.797664 6.21115 0.894427L-0.211146 4.10557C-0.821737 4.41087-1.56421 4.16338-1.8695 3.55279-1.95532 3.38115-2 3.19189-2 3L-2-3C-2-3.68266-1.44659-4.23607-0.763932-4.23607-0.572038-4.23607-0.38278-4.19139-0.211146-4.10557Z" id="path8-49-3-3-5-2-6" fill-rule="evenodd" transform="scale(0.7 0.7)"/></marker><marker refX="4.5" markerWidth="1" markerHeight="1" markerUnits="strokeWidth" orient="auto-start-reverse" viewBox="0 0 1 1" id="RoundedArrow-89-5-6-2-1-3-6" overflow="visible"><path d="M-0.211146-4.10557 6.21115-0.894427C6.70512-0.647438 6.90535-0.0467649 6.65836 0.447214 6.5616 0.640741 6.40467 0.797664 6.21115 0.894427L-0.211146 4.10557C-0.821737 4.41087-1.56421 4.16338-1.8695 3.55279-1.95532 3.38115-2 3.19189-2 3L-2-3C-2-3.68266-1.44659-4.23607-0.763932-4.23607-0.572038-4.23607-0.38278-4.19139-0.211146-4.10557Z" id="path8-49-3-3-5-2-1-8" fill-rule="evenodd" transform="scale(0.7 0.7)"/></marker><marker refX="4.5" markerWidth="1" markerHeight="1" markerUnits="strokeWidth" orient="auto-start-reverse" viewBox="0 0 1 1" id="RoundedArrow-89-5-6-2-1-3-8-7" overflow="visible"><path d="M-0.211146-4.10557 6.21115-0.894427C6.70512-0.647438 6.90535-0.0467649 6.65836 0.447214 6.5616 0.640741 6.40467 0.797664 6.21115 0.894427L-0.211146 4.10557C-0.821737 4.41087-1.56421 4.16338-1.8695 3.55279-1.95532 3.38115-2 3.19189-2 3L-2-3C-2-3.68266-1.44659-4.23607-0.763932-4.23607-0.572038-4.23607-0.38278-4.19139-0.211146-4.10557Z" id="path8-49-3-3-5-2-1-2-4" fill-rule="evenodd" transform="scale(0.7 0.7)"/></marker><marker refX="4.5" markerWidth="1" markerHeight="1" markerUnits="strokeWidth" orient="auto-start-reverse" viewBox="0 0 1 1" id="RoundedArrow-13-5-4-8" overflow="visible"><path d="M-0.211146-4.10557 6.21115-0.894427C6.70512-0.647438 6.90535-0.0467649 6.65836 0.447214 6.5616 0.640741 6.40467 0.797664 6.21115 0.894427L-0.211146 4.10557C-0.821737 4.41087-1.56421 4.16338-1.8695 3.55279-1.95532 3.38115-2 3.19189-2 3L-2-3C-2-3.68266-1.44659-4.23607-0.763932-4.23607-0.572038-4.23607-0.38278-4.19139-0.211146-4.10557Z" id="path8-4-4-8-2" fill-rule="evenodd" transform="scale(0.7 0.7)"/></marker><marker refX="4.5" markerWidth="1" markerHeight="1" markerUnits="strokeWidth" orient="auto-start-reverse" viewBox="0 0 1 1" id="marker2" overflow="visible"><path d="M-0.211146-4.10557 6.21115-0.894427C6.70512-0.647438 6.90535-0.0467649 6.65836 0.447214 6.5616 0.640741 6.40467 0.797664 6.21115 0.894427L-0.211146 4.10557C-0.821737 4.41087-1.56421 4.16338-1.8695 3.55279-1.95532 3.38115-2 3.19189-2 3L-2-3C-2-3.68266-1.44659-4.23607-0.763932-4.23607-0.572038-4.23607-0.38278-4.19139-0.211146-4.10557Z" id="path2" fill-rule="evenodd" transform="scale(0.7 0.7)"/></marker><marker refX="4.5" markerWidth="1" markerHeight="1" markerUnits="strokeWidth" orient="auto-start-reverse" viewBox="0 0 1 1" id="RoundedArrow-89-9-2-3-2" overflow="visible"><path d="M-0.211146-4.10557 6.21115-0.894427C6.70512-0.647438 6.90535-0.0467649 6.65836 0.447214 6.5616 0.640741 6.40467 0.797664 6.21115 0.894427L-0.211146 4.10557C-0.821737 4.41087-1.56421 4.16338-1.8695 3.55279-1.95532 3.38115-2 3.19189-2 3L-2-3C-2-3.68266-1.44659-4.23607-0.763932-4.23607-0.572038-4.23607-0.38278-4.19139-0.211146-4.10557Z" id="path8-49-7-0-7-9" fill-rule="evenodd" transform="scale(0.7 0.7)"/></marker><marker refX="4.5" markerWidth="1" markerHeight="1" markerUnits="strokeWidth" orient="auto-start-reverse" viewBox="0 0 1 1" id="RoundedArrow-89-9-2-3-2-5" overflow="visible"><path d="M-0.211146-4.10557 6.21115-0.894427C6.70512-0.647438 6.90535-0.0467649 6.65836 0.447214 6.5616 0.640741 6.40467 0.797664 6.21115 0.894427L-0.211146 4.10557C-0.821737 4.41087-1.56421 4.16338-1.8695 3.55279-1.95532 3.38115-2 3.19189-2 3L-2-3C-2-3.68266-1.44659-4.23607-0.763932-4.23607-0.572038-4.23607-0.38278-4.19139-0.211146-4.10557Z" id="path8-49-7-0-7-9-4" fill-rule="evenodd" transform="scale(0.7 0.7)"/></marker><marker refX="4.5" markerWidth="1" markerHeight="1" markerUnits="strokeWidth" orient="auto-start-reverse" viewBox="0 0 1 1" id="RoundedArrow-89-9-2-3-2-5-2" overflow="visible"><path d="M-0.211146-4.10557 6.21115-0.894427C6.70512-0.647438 6.90535-0.0467649 6.65836 0.447214 6.5616 0.640741 6.40467 0.797664 6.21115 0.894427L-0.211146 4.10557C-0.821737 4.41087-1.56421 4.16338-1.8695 3.55279-1.95532 3.38115-2 3.19189-2 3L-2-3C-2-3.68266-1.44659-4.23607-0.763932-4.23607-0.572038-4.23607-0.38278-4.19139-0.211146-4.10557Z" id="path8-49-7-0-7-9-4-5" fill-rule="evenodd" transform="scale(0.7 0.7)"/></marker><marker refX="4.5" markerWidth="1" markerHeight="1" markerUnits="strokeWidth" orient="auto-start-reverse" viewBox="0 0 1 1" id="RoundedArrow-89-5-6-2-6-5" overflow="visible"><path d="M-0.211146-4.10557 6.21115-0.894427C6.70512-0.647438 6.90535-0.0467649 6.65836 0.447214 6.5616 0.640741 6.40467 0.797664 6.21115 0.894427L-0.211146 4.10557C-0.821737 4.41087-1.56421 4.16338-1.8695 3.55279-1.95532 3.38115-2 3.19189-2 3L-2-3C-2-3.68266-1.44659-4.23607-0.763932-4.23607-0.572038-4.23607-0.38278-4.19139-0.211146-4.10557Z" id="path8-49-3-3-5-4-1" fill-rule="evenodd" transform="scale(0.7 0.7)"/></marker><marker refX="4.5" markerWidth="1" markerHeight="1" markerUnits="strokeWidth" orient="auto-start-reverse" viewBox="0 0 1 1" id="RoundedArrow-13-5-4-7-8" overflow="visible"><path d="M-0.211146-4.10557 6.21115-0.894427C6.70512-0.647438 6.90535-0.0467649 6.65836 0.447214 6.5616 0.640741 6.40467 0.797664 6.21115 0.894427L-0.211146 4.10557C-0.821737 4.41087-1.56421 4.16338-1.8695 3.55279-1.95532 3.38115-2 3.19189-2 3L-2-3C-2-3.68266-1.44659-4.23607-0.763932-4.23607-0.572038-4.23607-0.38278-4.19139-0.211146-4.10557Z" id="path8-4-4-8-9-6" fill-rule="evenodd" transform="scale(0.7 0.7)"/></marker><marker refX="4.5" markerWidth="1" markerHeight="1" markerUnits="strokeWidth" orient="auto-start-reverse" viewBox="0 0 1 1" id="marker3" overflow="visible"><path d="M-0.211146-4.10557 6.21115-0.894427C6.70512-0.647438 6.90535-0.0467649 6.65836 0.447214 6.5616 0.640741 6.40467 0.797664 6.21115 0.894427L-0.211146 4.10557C-0.821737 4.41087-1.56421 4.16338-1.8695 3.55279-1.95532 3.38115-2 3.19189-2 3L-2-3C-2-3.68266-1.44659-4.23607-0.763932-4.23607-0.572038-4.23607-0.38278-4.19139-0.211146-4.10557Z" id="path3" fill-rule="evenodd" transform="scale(0.7 0.7)"/></marker><marker refX="4.5" markerWidth="1" markerHeight="1" markerUnits="strokeWidth" orient="auto-start-reverse" viewBox="0 0 1 1" id="RoundedArrow-89-9-2-3-8-3" overflow="visible"><path d="M-0.211146-4.10557 6.21115-0.894427C6.70512-0.647438 6.90535-0.0467649 6.65836 0.447214 6.5616 0.640741 6.40467 0.797664 6.21115 0.894427L-0.211146 4.10557C-0.821737 4.41087-1.56421 4.16338-1.8695 3.55279-1.95532 3.38115-2 3.19189-2 3L-2-3C-2-3.68266-1.44659-4.23607-0.763932-4.23607-0.572038-4.23607-0.38278-4.19139-0.211146-4.10557Z" id="path8-49-7-0-7-8-4" fill-rule="evenodd" transform="scale(0.7 0.7)"/></marker><marker refX="4.5" markerWidth="1" markerHeight="1" markerUnits="strokeWidth" orient="auto-start-reverse" viewBox="0 0 1 1" id="RoundedArrow-89-5-6-2-6-7-6" overflow="visible"><path d="M-0.211146-4.10557 6.21115-0.894427C6.70512-0.647438 6.90535-0.0467649 6.65836 0.447214 6.5616 0.640741 6.40467 0.797664 6.21115 0.894427L-0.211146 4.10557C-0.821737 4.41087-1.56421 4.16338-1.8695 3.55279-1.95532 3.38115-2 3.19189-2 3L-2-3C-2-3.68266-1.44659-4.23607-0.763932-4.23607-0.572038-4.23607-0.38278-4.19139-0.211146-4.10557Z" id="path8-49-3-3-5-4-0-5" fill-rule="evenodd" transform="scale(0.7 0.7)"/></marker></defs><g id="g3" transform="translate(-1159.5 -111.5)"><g id="g23"><path d="M1308.02 240 1336 240 1336 176 1288 176" id="path4-1" stroke="#666666" stroke-linecap="round" stroke-linejoin="round" stroke-miterlimit="3.9" fill="none" marker-end="url(#RoundedArrow-2)"/><path d="M1248.01 208C1247.43 208 1246.85 208.11 1246.4 208.33L1184 239.368C1183.11 239.81 1183.11 240.521 1184 240.962L1246.4 272C1247.29 272.441 1248.72 272.441 1249.61 272L1312.01 240.962C1312.9 240.521 1312.9 239.81 1312.01 239.368L1249.61 208.33C1249.16 208.11 1248.58 208 1248.01 208Z" id="rect6-9" stroke="#672178" stroke-linecap="round" stroke-linejoin="round" stroke-miterlimit="3.9" fill="#DDAFE9"/><rect x="1200" y="112" rx="16.9333" ry="15.792" width="96" height="32" id="rect1-9" stroke="#005500" stroke-linecap="round" stroke-linejoin="round" stroke-miterlimit="3.9" fill="#80FF80"/><text id="text2-98-2" fill="#441650" font-family="he" font-weight="400" font-size="12" x="1248.01" y="244.518"><tspan font-family="Helvetica" font-size="12" text-anchor="middle" x="1248.01" y="244.518">Connectivity OK?</tspan></text><text id="text2-9-6" fill="#16502D" font-family="he" font-weight="400" font-size="12" x="1247.82" y="132.333"><tspan font-family="Helvetica" font-weight="700" font-size="12" text-anchor="middle" x="1247.82" y="132.333">MAG-PSU</tspan></text><rect x="1208" y="160" rx="8" ry="8" width="80" height="32" id="rect2-3-3" stroke="#B77F00" stroke-linecap="round" stroke-linejoin="round" stroke-miterlimit="3.9" fill="#FFEA96"/><text id="text2-6-3" fill="#554400" font-family="he" font-weight="400" font-size="12" x="1248.11" y="180.33"><tspan font-family="Helvetica" font-weight="700" font-size="12" text-anchor="middle" x="1248.11" y="180.33">CONN</tspan></text><rect x="1160" y="304" rx="7.99999" ry="7.99999" width="80" height="32" id="rect2-3-0-2" stroke="#B77F00" stroke-linecap="round" stroke-linejoin="round" stroke-miterlimit="3.9" fill="#FFEA96"/><text id="text2-6-9-1" fill="#554400" font-family="he" font-weight="400" font-size="12" x="1199.98" y="324.28"><tspan font-family="Helvetica" font-weight="700" font-size="12" text-anchor="middle" x="1199.98" y="324.28">CHAR</tspan></text><rect x="1264" y="304" rx="7.99999" ry="7.99999" width="80" height="32" id="rect2-3-0-8-7" stroke="#B77F00" stroke-linecap="round" stroke-linejoin="round" stroke-miterlimit="3.9" fill="#FFEA96"/><text id="text2-6-9-2-6" fill="#554400" font-family="he" font-weight="400" font-size="12" x="1304.11" y="324.318"><tspan font-family="Helvetica" font-weight="700" font-size="12" text-anchor="middle" x="1304.11" y="324.318">FT</tspan></text><text id="text11-50" fill="#441650" font-family="Arial" font-size="10" x="1318.6" y="237.883"><tspan font-family="Helvetica" font-weight="400" font-size="10" x="1318.6" y="237.883">no</tspan></text><text id="text11-5-7" fill="#441650" font-family="Arial" font-size="10" x="1250.12" y="280.467"><tspan font-family="Helvetica" font-weight="400" font-size="10" x="1250.12" y="280.467">yes</tspan></text><path d="M1248 144 1248 160" id="path12-24" stroke="#666666" stroke-linecap="round" stroke-linejoin="round" stroke-miterlimit="3.9" fill="#441650" marker-end="url(#RoundedArrow-2)"/><path d="M1248 192 1248 208" id="path12-9-0" stroke="#666666" stroke-linecap="round" stroke-linejoin="round" stroke-miterlimit="3.9" fill="#441650" marker-end="url(#RoundedArrow-89-91)"/><path d="M1248 272 1248 288 1200 288 1200 304" id="path12-9-5-93" stroke="#666666" stroke-linecap="round" stroke-linejoin="round" stroke-miterlimit="3.9" fill="none" marker-end="url(#RoundedArrow-89-5-2)"/><path d="M1248 272 1248 288 1304 288 1304 304" id="path12-9-2-2-5" stroke="#666666" stroke-linecap="round" stroke-linejoin="round" stroke-miterlimit="3.9" fill="none" marker-end="url(#RoundedArrow-89-4-3-1)"/><path d="M1304 336 1304 352 1304 352 1304 368" id="path12-9-5-9-9-1-6" stroke="#666666" stroke-linecap="round" stroke-linejoin="round" stroke-miterlimit="3.9" fill="none" marker-end="url(#RoundedArrow-89-5-6-2-1-4)"/><path d="M1440 128 1440 144" id="path12-9-5-9-9-1-2-5" stroke="#666666" stroke-linecap="round" stroke-linejoin="round" stroke-miterlimit="3.9" fill="none" marker-end="url(#RoundedArrow-89-5-6-2-1-3-6)"/><path d="M1304 336 1304 352 1360 352 1360 128 1616 128 1616 144" id="path12-9-5-9-9-1-2-2-1" stroke="#666666" stroke-linecap="round" stroke-linejoin="round" stroke-miterlimit="3.9" fill="none" marker-end="url(#RoundedArrow-89-5-6-2-1-3-8-7)"/><rect x="1264" y="368" rx="12" ry="12" width="80" height="24" id="rect1-1-1-4-7-5-6" stroke="#217867" stroke-linecap="round" stroke-linejoin="round" stroke-miterlimit="3.9" fill="#AFE9DD"/><text id="text2-9-5-9-7-0-8-0" fill="#165044" font-family="he" font-weight="400" font-size="10" x="1303.8" y="384.33"><tspan font-family="Helvetica" font-weight="700" font-size="10" text-anchor="middle" x="1303.8" y="384.33">STAND ALONE</tspan></text><rect x="1400" y="368" rx="12" ry="12" width="80" height="24" id="rect1-1-1-4-7-5-6-7" stroke="#217867" stroke-linecap="round" stroke-linejoin="round" stroke-miterlimit="3.9" fill="#AFE9DD"/><text id="text2-9-5-9-7-0-8-0-1" fill="#165044" font-family="he" font-weight="400" font-size="10" x="1439.8" y="384.33"><tspan font-family="Helvetica" font-weight="700" font-size="10" text-anchor="middle" x="1439.8" y="384.33">MODULE</tspan></text><rect x="1576" y="368" rx="12" ry="12" width="80" height="24" id="rect1-1-1-4-7-5-6-6" stroke="#217867" stroke-linecap="round" stroke-linejoin="round" stroke-miterlimit="3.9" fill="#AFE9DD"/><text id="text2-9-5-9-7-0-8-0-10" fill="#165044" font-family="he" font-weight="400" font-size="10" x="1615.8" y="384.33"><tspan font-family="Helvetica" font-weight="700" font-size="10" text-anchor="middle" x="1615.8" y="384.33">VIS</tspan></text><path d="M1500.02 272 1536 272 1536 160 1488 160" id="path4-3-6-9-4" stroke="#666666" stroke-linecap="round" stroke-linejoin="round" stroke-miterlimit="3.9" fill="none" marker-end="url(#RoundedArrow-13-5-4-8)"/><path d="M1440.01 240C1439.43 240 1438.85 240.109 1438.4 240.33L1376 271.368C1375.11 271.81 1375.11 272.521 1376 272.962L1438.4 304C1439.29 304.441 1440.72 304.441 1441.61 304L1504.01 272.962C1504.9 272.521 1504.9 271.81 1504.01 271.368L1441.61 240.33C1441.16 240.109 1440.58 240 1440.01 240Z" id="rect6-0-5-1-4" stroke="#672178" stroke-linecap="round" stroke-linejoin="round" stroke-miterlimit="3.9" fill="#DDAFE9"/><rect x="1392" y="144" rx="16.9333" ry="15.792" width="96" height="32" id="rect1-1-1-4-9" stroke="#005500" stroke-linecap="round" stroke-linejoin="round" stroke-miterlimit="3.9" fill="#80FF80"/><text id="text2-98-8-0-2-20" fill="#441650" font-family="he" font-weight="400" font-size="12" x="1440.01" y="276.518"><tspan font-family="Helvetica" font-size="12" text-anchor="middle" x="1440.01" y="276.518">Connectivity OK?</tspan></text><text id="text2-9-5-9-7-73" fill="#16502D" font-family="he" font-weight="400" font-size="12" x="1439.91" y="156.671"><tspan font-family="Helvetica" font-weight="700" font-size="12" text-anchor="middle" x="1439.91" y="156.671">MODULE </tspan><tspan font-family="Helvetica" font-weight="700" font-size="12" text-anchor="middle" x="1439.91" y="172.007">ASSEMBLY</tspan></text><rect x="1400" y="192" rx="8" ry="8" width="80" height="32" id="rect2-3-8-6-2-7" stroke="#B77F00" stroke-linecap="round" stroke-linejoin="round" stroke-miterlimit="3.9" fill="#FFEA96"/><text id="text2-6-1-9-5-8" fill="#554400" font-family="he" font-weight="400" font-size="12" x="1440.11" y="212.33"><tspan font-family="Helvetica" font-weight="700" font-size="12" text-anchor="middle" x="1440.11" y="212.33">CONN</tspan></text><rect x="1400" y="320" rx="7.99999" ry="7.99999" width="80" height="32" id="rect2-3-0-0-8-9-4" stroke="#B77F00" stroke-linecap="round" stroke-linejoin="round" stroke-miterlimit="3.9" fill="#FFEA96"/><text id="text2-6-9-0-5-7-0" fill="#554400" font-family="he" font-weight="400" font-size="12" x="1439.98" y="340.28"><tspan font-family="Helvetica" font-weight="700" font-size="12" text-anchor="middle" x="1439.98" y="340.28">MODULE</tspan></text><text id="text11-0-3-2-1" fill="#441650" font-family="Arial" font-size="10" x="1510.6" y="269.883"><tspan font-family="Helvetica" font-weight="400" font-size="10" x="1510.6" y="269.883">no</tspan></text><text id="text11-5-1-8-7-1" fill="#441650" font-family="Arial" font-size="10" x="1442.12" y="312.467"><tspan font-family="Helvetica" font-weight="400" font-size="10" x="1442.12" y="312.467">yes</tspan></text><path d="M1440 176 1440 192" id="path12-5-4-6-6" stroke="#666666" stroke-linecap="round" stroke-linejoin="round" stroke-miterlimit="3.9" fill="#441650" marker-end="url(#RoundedArrow-13-5-4-8)"/><path d="M1440 224 1440 240" id="path12-9-7-4-8-2" stroke="#666666" stroke-linecap="round" stroke-linejoin="round" stroke-miterlimit="3.9" fill="#441650" marker-end="url(#RoundedArrow-89-9-2-3-2)"/><path d="M1440 352 1440 368" id="path12-9-7-4-8-2-9" stroke="#666666" stroke-linecap="round" stroke-linejoin="round" stroke-miterlimit="3.9" fill="#441650" marker-end="url(#RoundedArrow-89-9-2-3-2-5)"/><path d="M1616 352 1616 368" id="path12-9-7-4-8-2-9-6" stroke="#666666" stroke-linecap="round" stroke-linejoin="round" stroke-miterlimit="3.9" fill="#441650" marker-end="url(#RoundedArrow-89-9-2-3-2-5-2)"/><path d="M1440 304 1440 320" id="path12-9-5-9-9-4-4" stroke="#666666" stroke-linecap="round" stroke-linejoin="round" stroke-miterlimit="3.9" fill="#441650" marker-end="url(#RoundedArrow-89-5-6-2-6-5)"/><path d="M1676.02 272 1712 272 1712 160 1664 160" id="path4-3-6-9-1-6" stroke="#666666" stroke-linecap="round" stroke-linejoin="round" stroke-miterlimit="3.9" fill="none" marker-end="url(#RoundedArrow-13-5-4-7-8)"/><path d="M1616.01 240C1615.43 240 1614.85 240.109 1614.4 240.33L1552 271.368C1551.11 271.81 1551.11 272.521 1552 272.962L1614.4 304C1615.29 304.441 1616.72 304.441 1617.61 304L1680.01 272.962C1680.9 272.521 1680.9 271.81 1680.01 271.368L1617.61 240.33C1617.16 240.109 1616.58 240 1616.01 240Z" id="rect6-0-5-1-6-7" stroke="#672178" stroke-linecap="round" stroke-linejoin="round" stroke-miterlimit="3.9" fill="#DDAFE9"/><rect x="1568" y="144" rx="16.9333" ry="15.792" width="96" height="32" id="rect1-1-1-4-0-6" stroke="#005500" stroke-linecap="round" stroke-linejoin="round" stroke-miterlimit="3.9" fill="#80FF80"/><text id="text2-98-8-0-2-2-0" fill="#441650" font-family="he" font-weight="400" font-size="12" x="1616.01" y="276.518"><tspan font-family="Helvetica" font-size="12" text-anchor="middle" x="1616.01" y="276.518">Connectivity OK?</tspan></text><rect x="1576" y="192" rx="8" ry="8" width="80" height="32" id="rect2-3-8-6-2-2-4" stroke="#B77F00" stroke-linecap="round" stroke-linejoin="round" stroke-miterlimit="3.9" fill="#FFEA96"/><text id="text2-6-1-9-5-9-1" fill="#554400" font-family="he" font-weight="400" font-size="12" x="1616.11" y="212.33"><tspan font-family="Helvetica" font-weight="700" font-size="12" text-anchor="middle" x="1616.11" y="212.33">CONN</tspan></text><rect x="1576" y="320" rx="7.99999" ry="7.99999" width="80" height="32" id="rect2-3-0-0-8-9-8-0" stroke="#B77F00" stroke-linecap="round" stroke-linejoin="round" stroke-miterlimit="3.9" fill="#FFEA96"/><text id="text2-6-9-0-5-7-2-4" fill="#554400" font-family="he" font-weight="400" font-size="12" x="1615.98" y="340.28"><tspan font-family="Helvetica" font-weight="700" font-size="12" text-anchor="middle" x="1615.98" y="340.28">VIS</tspan></text><text id="text11-0-3-2-9-5" fill="#441650" font-family="Arial" font-size="10" x="1686.6" y="269.883"><tspan font-family="Helvetica" font-weight="400" font-size="10" x="1686.6" y="269.883">no</tspan></text><text id="text11-5-1-8-7-5-5" fill="#441650" font-family="Arial" font-size="10" x="1618.12" y="312.467"><tspan font-family="Helvetica" font-weight="400" font-size="10" x="1618.12" y="312.467">yes</tspan></text><path d="M1616 176 1616 192" id="path12-5-4-6-7-3" stroke="#666666" stroke-linecap="round" stroke-linejoin="round" stroke-miterlimit="3.9" fill="#441650" marker-end="url(#RoundedArrow-13-5-4-7-8)"/><path d="M1616 224 1616 240" id="path12-9-7-4-8-8-5" stroke="#666666" stroke-linecap="round" stroke-linejoin="round" stroke-miterlimit="3.9" fill="#441650" marker-end="url(#RoundedArrow-89-9-2-3-8-3)"/><path d="M1616 304 1616 320" id="path12-9-5-9-9-4-6-6" stroke="#666666" stroke-linecap="round" stroke-linejoin="round" stroke-miterlimit="3.9" fill="#441650" marker-end="url(#RoundedArrow-89-5-6-2-6-7-6)"/><text id="text2-9-5-9-7-73-1" fill="#16502D" font-family="he" font-weight="400" font-size="12" x="1615.91" y="156.671"><tspan font-family="Helvetica" font-weight="700" font-size="12" text-anchor="middle" x="1615.91" y="156.671">VIS </tspan><tspan font-family="Helvetica" font-weight="700" font-size="12" text-anchor="middle" x="1615.91" y="172.007">ASSEMBLY</tspan></text></g><rect x="1303" y="351" rx="1" ry="1" width="2" height="2" id="rect3" stroke="#666666" stroke-width="0.498898" stroke-linecap="round" stroke-linejoin="round" stroke-miterlimit="3.9" fill="#666666"/><rect x="1247" y="287" rx="1" ry="1" width="2" height="2" id="rect3-3" stroke="#666666" stroke-width="0.498898" stroke-linecap="round" stroke-linejoin="round" stroke-miterlimit="3.9" fill="#666666"/><rect x="1439" y="127" rx="1" ry="1" width="2" height="2" id="rect3-6" stroke="#666666" stroke-width="0.498898" stroke-linecap="round" stroke-linejoin="round" stroke-miterlimit="3.9" fill="#666666"/></g></svg>